<svg width="20" height="20" viewBox="0 0 20 20" fill="none" xmlns="http://www.w3.org/2000/svg">
<g clip-path="url(#clip0_127_898)">
<path d="M9.99993 0C7.16471 0 4.85823 2.30648 4.85823 5.1417C4.85823 6.7753 5.61127 8.27611 6.92463 9.25951L7.48414 9.67854L6.82017 9.89717C5.61734 10.2931 4.51531 10.8988 3.54446 11.6972C1.75661 13.168 0.513691 15.2186 0.0448645 17.4721C-0.0850952 18.0955 0.0703706 18.736 0.471181 19.2291C0.869562 19.7194 1.46066 20.0004 2.09264 20.0004H4.95944C5.20519 20.0004 5.40479 19.8008 5.40479 19.5551C5.40479 19.3093 5.20519 19.1097 4.95944 19.1097H2.09264C1.59588 19.1097 1.29669 18.8324 1.16227 18.6672C0.931505 18.383 0.842031 18.0138 0.91693 17.6538C1.34001 15.6219 2.46066 13.7656 4.07321 12.4271C5.68293 11.0907 7.71127 10.3279 9.78536 10.2798H9.80763C9.87969 10.2826 9.94285 10.2838 10.0003 10.2838C10.0578 10.2838 10.1218 10.2826 10.1947 10.2798H10.2165C11.2639 10.3036 12.2882 10.5008 13.2611 10.866C13.3724 10.9081 13.4935 10.9036 13.6016 10.8547C13.7101 10.8057 13.7926 10.717 13.8343 10.6057C13.876 10.4943 13.872 10.3733 13.823 10.2652C13.774 10.1571 13.6854 10.0741 13.574 10.0324C13.4497 9.98583 13.3222 9.94089 13.1833 9.89514L12.5202 9.67652L13.0789 9.25749C14.3898 8.27409 15.142 6.77409 15.142 5.14211C15.1416 2.30648 12.8352 0 9.99993 0ZM10.2068 9.38745H10.1829C10.0611 9.38583 9.9388 9.38542 9.81694 9.38745H9.79305C7.52544 9.27733 5.74932 7.41255 5.74932 5.1413C5.74932 2.87004 7.6558 0.890688 9.99993 0.890688C12.3441 0.890688 14.2509 2.79757 14.2509 5.1417C14.2509 7.48583 12.4744 9.27814 10.2068 9.38745Z" fill="white"/>
<path d="M13.522 18.8648C13.8058 19.5526 14.4657 19.9984 15.2033 20H17.7633C18.4827 20 19.1329 19.5741 19.4203 18.915C19.6863 18.3053 20.0025 17.3583 20.0001 16.3093C19.9977 15.2644 19.6791 14.3332 19.4118 13.736C19.1236 13.0915 18.4722 12.6737 17.7527 12.6721H15.2232C14.4645 12.6721 13.8029 13.1174 13.5378 13.8073C13.5029 13.898 13.4499 14.0381 13.3944 14.2044L13.3114 14.4534H7.74708C7.62724 14.4534 7.51105 14.5028 7.42765 14.5887L6.03696 16.0215C5.86975 16.1935 5.87056 16.4729 6.03898 16.6437L7.45599 18.0854C7.53898 18.17 7.65477 18.2186 7.7738 18.2186H10.4054C10.6511 18.2186 10.8507 18.019 10.8507 17.7733C10.8507 17.5275 10.6511 17.3279 10.4054 17.3279H7.96044L6.97906 16.3295L7.93574 15.3441H13.6564C13.8621 15.3441 14.0402 15.2044 14.0888 15.0049C14.158 14.7219 14.2446 14.451 14.3693 14.1267C14.5009 13.7842 14.837 13.5627 15.2252 13.5627H17.7519C18.1272 13.5636 18.4515 13.7692 18.5989 14.0996C18.8305 14.6182 19.1074 15.4231 19.1094 16.3117C19.1114 17.2061 18.8357 18.0275 18.6038 18.5591C18.458 18.8931 18.1272 19.1093 17.7612 19.1093H15.2042C14.8337 19.1085 14.4888 18.8737 14.345 18.5251C14.243 18.2777 14.1552 17.998 14.0766 17.6696C14.0276 17.4656 13.8446 17.3279 13.6434 17.3279C13.609 17.3279 13.5746 17.332 13.5398 17.3401C13.424 17.3676 13.326 17.4389 13.2637 17.5401C13.2013 17.6413 13.1823 17.7611 13.2102 17.8765C13.2997 18.2506 13.4017 18.5737 13.5216 18.8644L13.522 18.8648Z" fill="white"/>
<path d="M17.085 16.7611C17.3309 16.7611 17.5303 16.5617 17.5303 16.3158C17.5303 16.0698 17.3309 15.8704 17.085 15.8704C16.839 15.8704 16.6396 16.0698 16.6396 16.3158C16.6396 16.5617 16.839 16.7611 17.085 16.7611Z" fill="white"/>
</g>
<defs>
<clipPath id="clip0_127_898">
<rect width="20" height="20" fill="white"/>
</clipPath>
</defs>
</svg>
