<svg width="24" height="22" viewBox="0 0 24 22" fill="none" xmlns="http://www.w3.org/2000/svg">
<path d="M23.8603 0.712167C23.755 0.62727 23.612 0.605775 23.4865 0.655616L18.7057 2.55561C12.6526 4.96105 6.39342 7.44847 0.23665 9.89285C0.0946838 9.94925 0.00104732 10.0861 7.96274e-06 10.2389C-0.00098415 10.3917 0.0908099 10.5298 0.231973 10.588C2.04026 11.3339 3.84898 12.0786 5.65769 12.8234L6.46022 13.1539L9.84762 21.1421C9.90691 21.2819 10.0436 21.3707 10.1927 21.3707C10.207 21.3707 10.2213 21.3699 10.2357 21.3682C10.3434 21.3559 10.4369 21.2977 10.4972 21.2135C10.5003 21.2096 10.5038 21.206 10.5069 21.202L14.1398 16.3164C16.2995 17.206 18.4591 18.0957 20.6192 18.9843C20.6651 19.0032 20.7135 19.0125 20.7619 19.0125C20.8253 19.0125 20.8884 18.9965 20.9451 18.9647C21.045 18.9088 21.114 18.8103 21.1321 18.6971L21.5208 16.2841C22.3244 11.2946 23.1553 6.1352 23.9949 1.06536C24.0171 0.932038 23.9657 0.797063 23.8603 0.712167ZM1.37465 10.248C7.25325 7.91377 13.2114 5.54602 18.9826 3.25254L22.2213 1.96549C19.9713 3.44889 17.0366 5.44861 14.1863 7.39069C11.3658 9.31251 8.69781 11.1304 6.70489 12.4435L5.94328 12.1299C4.42034 11.5028 2.8974 10.8757 1.37465 10.248ZM14.6086 8.01052C16.7998 6.51749 19.0409 4.99044 20.9804 3.69148L11.0067 14.4788C10.9577 14.5319 10.9251 14.598 10.9126 14.6692L10.0415 19.6781L7.21267 13.0071C9.19977 11.696 11.8305 9.90348 14.6086 8.01052ZM10.8325 19.5073L11.5713 15.2589C12.189 15.5133 12.8067 15.7674 13.4244 16.0218L10.8325 19.5073ZM20.7805 16.1649L20.467 18.1107C17.6187 16.9388 14.7708 15.7657 11.923 14.5925L22.9751 2.63885C22.2307 7.16066 21.4947 11.73 20.7805 16.1649Z" fill="white"/>
</svg>
